<mxfile host="65bd71144e">
    <diagram id="NLKxUC1OpLWs4MY7TtJv" name="Page-1">
        <mxGraphModel dx="734" dy="422" grid="1" gridSize="10" guides="1" tooltips="1" connect="1" arrows="1" fold="1" page="1" pageScale="1" pageWidth="850" pageHeight="1100" math="0" shadow="0">
            <root>
                <mxCell id="0"/>
                <mxCell id="1" parent="0"/>
                <mxCell id="2" value="GCIT Profile page" style="swimlane;" vertex="1" parent="1">
                    <mxGeometry x="150" y="60" width="440" height="440" as="geometry"/>
                </mxCell>
                <mxCell id="4" value="Sign Up" style="ellipse;whiteSpace=wrap;html=1;" vertex="1" parent="2">
                    <mxGeometry x="70" y="40" width="70" height="20" as="geometry"/>
                </mxCell>
                <mxCell id="5" value="Login" style="ellipse;whiteSpace=wrap;html=1;" vertex="1" parent="2">
                    <mxGeometry x="80" y="80" width="50" height="20" as="geometry"/>
                </mxCell>
                <mxCell id="9" value="Verification" style="ellipse;whiteSpace=wrap;html=1;align=center;" vertex="1" parent="2">
                    <mxGeometry x="200" y="30" width="80" height="30" as="geometry"/>
                </mxCell>
                <mxCell id="12" value="&amp;lt;&amp;lt;include&amp;gt;&amp;gt;" style="html=1;verticalAlign=bottom;labelBackgroundColor=none;endArrow=open;endFill=0;dashed=1;entryX=0;entryY=0.5;entryDx=0;entryDy=0;exitX=1;exitY=0;exitDx=0;exitDy=0;" edge="1" parent="2" source="4" target="9">
                    <mxGeometry width="160" relative="1" as="geometry">
                        <mxPoint x="160" y="210" as="sourcePoint"/>
                        <mxPoint x="320" y="210" as="targetPoint"/>
                    </mxGeometry>
                </mxCell>
                <mxCell id="13" value="&amp;lt;&amp;lt;include&amp;gt;&amp;gt;" style="html=1;verticalAlign=bottom;labelBackgroundColor=none;endArrow=open;endFill=0;dashed=1;entryX=0;entryY=1;entryDx=0;entryDy=0;exitX=1.013;exitY=0.2;exitDx=0;exitDy=0;exitPerimeter=0;" edge="1" parent="2" source="5" target="9">
                    <mxGeometry width="160" relative="1" as="geometry">
                        <mxPoint x="160" y="210" as="sourcePoint"/>
                        <mxPoint x="320" y="210" as="targetPoint"/>
                    </mxGeometry>
                </mxCell>
                <mxCell id="15" value="get college Info" style="ellipse;whiteSpace=wrap;html=1;" vertex="1" parent="2">
                    <mxGeometry x="85" y="120" width="90" height="30" as="geometry"/>
                </mxCell>
                <mxCell id="17" value="get personal info" style="ellipse;whiteSpace=wrap;html=1;align=center;" vertex="1" parent="2">
                    <mxGeometry x="80" y="160" width="100" height="30" as="geometry"/>
                </mxCell>
                <mxCell id="18" value="Modify personal info" style="ellipse;whiteSpace=wrap;html=1;align=center;" vertex="1" parent="2">
                    <mxGeometry x="80" y="200" width="100" height="35" as="geometry"/>
                </mxCell>
                <mxCell id="26" value="&lt;span&gt;change password&lt;/span&gt;" style="ellipse;whiteSpace=wrap;html=1;align=center;" vertex="1" parent="2">
                    <mxGeometry x="260" y="60" width="100" height="40" as="geometry"/>
                </mxCell>
                <mxCell id="27" value="&lt;span&gt;viewLocation&lt;/span&gt;" style="ellipse;whiteSpace=wrap;html=1;align=center;" vertex="1" parent="2">
                    <mxGeometry x="100" y="250" width="100" height="40" as="geometry"/>
                </mxCell>
                <mxCell id="29" value="student and staff&lt;br&gt;informatiom" style="ellipse;whiteSpace=wrap;html=1;align=center;" vertex="1" parent="2">
                    <mxGeometry x="240" y="170" width="100" height="55" as="geometry"/>
                </mxCell>
                <mxCell id="30" value="&amp;lt;&amp;lt;include&amp;gt;&amp;gt;" style="html=1;verticalAlign=bottom;labelBackgroundColor=none;endArrow=open;endFill=0;dashed=1;exitX=1.013;exitY=0.2;exitDx=0;exitDy=0;exitPerimeter=0;" edge="1" parent="2">
                    <mxGeometry x="-0.2108" y="2" width="160" relative="1" as="geometry">
                        <mxPoint x="175" y="210" as="sourcePoint"/>
                        <mxPoint x="240" y="190" as="targetPoint"/>
                        <mxPoint as="offset"/>
                    </mxGeometry>
                </mxCell>
                <mxCell id="34" value="" style="endArrow=none;html=1;rounded=0;" edge="1" parent="2">
                    <mxGeometry relative="1" as="geometry">
                        <mxPoint x="130" y="90" as="sourcePoint"/>
                        <mxPoint x="490" y="220" as="targetPoint"/>
                        <Array as="points">
                            <mxPoint x="230" y="70"/>
                            <mxPoint x="340" y="40"/>
                        </Array>
                    </mxGeometry>
                </mxCell>
                <mxCell id="35" value="collageContent" style="ellipse;whiteSpace=wrap;html=1;align=center;" vertex="1" parent="2">
                    <mxGeometry x="225" y="100" width="100" height="40" as="geometry"/>
                </mxCell>
                <mxCell id="36" value="&amp;lt;&amp;lt;include&amp;gt;&amp;gt;" style="html=1;verticalAlign=bottom;labelBackgroundColor=none;endArrow=open;endFill=0;dashed=1;exitX=1.013;exitY=0.2;exitDx=0;exitDy=0;exitPerimeter=0;entryX=0.05;entryY=0.75;entryDx=0;entryDy=0;entryPerimeter=0;" edge="1" parent="2" target="35">
                    <mxGeometry width="160" relative="1" as="geometry">
                        <mxPoint x="175" y="140" as="sourcePoint"/>
                        <mxPoint x="240" y="120" as="targetPoint"/>
                        <Array as="points"/>
                    </mxGeometry>
                </mxCell>
                <mxCell id="37" value="googleMap" style="ellipse;whiteSpace=wrap;html=1;align=center;" vertex="1" parent="2">
                    <mxGeometry x="250" y="240" width="100" height="40" as="geometry"/>
                </mxCell>
                <mxCell id="38" value="Manage User" style="ellipse;whiteSpace=wrap;html=1;align=center;" vertex="1" parent="2">
                    <mxGeometry x="250" y="290" width="100" height="40" as="geometry"/>
                </mxCell>
                <mxCell id="39" value="Update" style="ellipse;whiteSpace=wrap;html=1;align=center;" vertex="1" parent="2">
                    <mxGeometry x="240" y="340" width="100" height="40" as="geometry"/>
                </mxCell>
                <mxCell id="40" value="Logout" style="ellipse;whiteSpace=wrap;html=1;align=center;" vertex="1" parent="2">
                    <mxGeometry x="175" y="390" width="100" height="40" as="geometry"/>
                </mxCell>
                <mxCell id="41" value="Bulk" style="ellipse;whiteSpace=wrap;html=1;align=center;" vertex="1" parent="2">
                    <mxGeometry x="70" y="300" width="100" height="40" as="geometry"/>
                </mxCell>
                <mxCell id="42" value="single" style="ellipse;whiteSpace=wrap;html=1;align=center;" vertex="1" parent="2">
                    <mxGeometry x="70" y="360" width="100" height="40" as="geometry"/>
                </mxCell>
                <mxCell id="44" value="&amp;lt;&amp;lt;extend&amp;gt;&amp;gt;" style="html=1;verticalAlign=bottom;labelBackgroundColor=none;endArrow=open;endFill=0;dashed=1;entryX=1;entryY=0.5;entryDx=0;entryDy=0;exitX=0;exitY=0;exitDx=0;exitDy=0;" edge="1" parent="2" source="29" target="17">
                    <mxGeometry width="160" relative="1" as="geometry">
                        <mxPoint x="220" y="320" as="sourcePoint"/>
                        <mxPoint x="380" y="320" as="targetPoint"/>
                    </mxGeometry>
                </mxCell>
                <mxCell id="45" value="Delete" style="ellipse;whiteSpace=wrap;html=1;align=center;" vertex="1" parent="2">
                    <mxGeometry x="310" y="390" width="100" height="40" as="geometry"/>
                </mxCell>
                <mxCell id="51" value="&amp;lt;&amp;lt;extend&amp;gt;&amp;gt;" style="html=1;verticalAlign=bottom;labelBackgroundColor=none;endArrow=open;endFill=0;dashed=1;entryX=1;entryY=0.5;entryDx=0;entryDy=0;exitX=0.2;exitY=0;exitDx=0;exitDy=0;exitPerimeter=0;" edge="1" parent="2" source="39" target="41">
                    <mxGeometry width="160" relative="1" as="geometry">
                        <mxPoint x="220" y="320" as="sourcePoint"/>
                        <mxPoint x="380" y="320" as="targetPoint"/>
                    </mxGeometry>
                </mxCell>
                <mxCell id="53" value="&amp;lt;&amp;lt;extend&amp;gt;&amp;gt;" style="html=1;verticalAlign=bottom;labelBackgroundColor=none;endArrow=open;endFill=0;dashed=1;exitX=0;exitY=0.5;exitDx=0;exitDy=0;entryX=1;entryY=0.5;entryDx=0;entryDy=0;" edge="1" parent="2" source="39" target="42">
                    <mxGeometry width="160" relative="1" as="geometry">
                        <mxPoint x="220" y="320" as="sourcePoint"/>
                        <mxPoint x="380" y="320" as="targetPoint"/>
                    </mxGeometry>
                </mxCell>
                <mxCell id="54" value="&amp;lt;&amp;lt;include&amp;gt;&amp;gt;" style="html=1;verticalAlign=bottom;labelBackgroundColor=none;endArrow=open;endFill=0;dashed=1;entryX=0;entryY=0.5;entryDx=0;entryDy=0;exitX=0.98;exitY=0.217;exitDx=0;exitDy=0;exitPerimeter=0;" edge="1" parent="2" source="27" target="37">
                    <mxGeometry width="160" relative="1" as="geometry">
                        <mxPoint x="220" y="320" as="sourcePoint"/>
                        <mxPoint x="380" y="320" as="targetPoint"/>
                    </mxGeometry>
                </mxCell>
                <mxCell id="3" value="User" style="shape=umlActor;verticalLabelPosition=bottom;verticalAlign=top;html=1;" vertex="1" parent="1">
                    <mxGeometry x="100" y="180" width="30" height="60" as="geometry"/>
                </mxCell>
                <mxCell id="7" value="" style="endArrow=none;html=1;rounded=0;entryX=0;entryY=0.5;entryDx=0;entryDy=0;" edge="1" parent="1" target="4">
                    <mxGeometry relative="1" as="geometry">
                        <mxPoint x="130" y="200" as="sourcePoint"/>
                        <mxPoint x="370" y="280" as="targetPoint"/>
                    </mxGeometry>
                </mxCell>
                <mxCell id="8" value="" style="endArrow=none;html=1;rounded=0;entryX=0;entryY=0.5;entryDx=0;entryDy=0;exitX=1;exitY=0.3333333333333333;exitDx=0;exitDy=0;exitPerimeter=0;" edge="1" parent="1" source="3" target="5">
                    <mxGeometry relative="1" as="geometry">
                        <mxPoint x="210" y="280" as="sourcePoint"/>
                        <mxPoint x="370" y="280" as="targetPoint"/>
                    </mxGeometry>
                </mxCell>
                <mxCell id="14" value="Actor" style="shape=umlActor;verticalLabelPosition=bottom;verticalAlign=top;html=1;" vertex="1" parent="1">
                    <mxGeometry x="640" y="260" width="30" height="60" as="geometry"/>
                </mxCell>
                <mxCell id="20" value="" style="endArrow=none;html=1;rounded=0;entryX=0;entryY=0.5;entryDx=0;entryDy=0;" edge="1" parent="1" target="15">
                    <mxGeometry relative="1" as="geometry">
                        <mxPoint x="130" y="200" as="sourcePoint"/>
                        <mxPoint x="520" y="200" as="targetPoint"/>
                    </mxGeometry>
                </mxCell>
                <mxCell id="21" value="" style="endArrow=none;html=1;rounded=0;entryX=0;entryY=0.5;entryDx=0;entryDy=0;" edge="1" parent="1" target="17">
                    <mxGeometry relative="1" as="geometry">
                        <mxPoint x="130" y="200" as="sourcePoint"/>
                        <mxPoint x="230" y="205" as="targetPoint"/>
                    </mxGeometry>
                </mxCell>
                <mxCell id="22" value="" style="endArrow=none;html=1;rounded=0;entryX=0;entryY=0.5;entryDx=0;entryDy=0;" edge="1" parent="1" target="18">
                    <mxGeometry relative="1" as="geometry">
                        <mxPoint x="130" y="200" as="sourcePoint"/>
                        <mxPoint x="240" y="215" as="targetPoint"/>
                    </mxGeometry>
                </mxCell>
                <mxCell id="25" value="" style="endArrow=none;html=1;rounded=0;entryX=0;entryY=0.5;entryDx=0;entryDy=0;" edge="1" parent="1">
                    <mxGeometry relative="1" as="geometry">
                        <mxPoint x="130" y="200" as="sourcePoint"/>
                        <mxPoint x="250" y="330" as="targetPoint"/>
                    </mxGeometry>
                </mxCell>
                <mxCell id="28" value="" style="endArrow=none;html=1;rounded=0;entryX=0;entryY=0.5;entryDx=0;entryDy=0;" edge="1" parent="1" target="26">
                    <mxGeometry relative="1" as="geometry">
                        <mxPoint x="130" y="200" as="sourcePoint"/>
                        <mxPoint x="260" y="340" as="targetPoint"/>
                        <Array as="points">
                            <mxPoint x="230" y="180"/>
                        </Array>
                    </mxGeometry>
                </mxCell>
                <mxCell id="33" value="" style="endArrow=none;html=1;rounded=0;entryX=0;entryY=0.3333333333333333;entryDx=0;entryDy=0;entryPerimeter=0;exitX=1;exitY=0.5;exitDx=0;exitDy=0;" edge="1" parent="1" source="26" target="14">
                    <mxGeometry relative="1" as="geometry">
                        <mxPoint x="450" y="150" as="sourcePoint"/>
                        <mxPoint x="670" y="100" as="targetPoint"/>
                        <Array as="points"/>
                    </mxGeometry>
                </mxCell>
                <mxCell id="46" value="" style="endArrow=none;html=1;rounded=0;entryX=0;entryY=0.3333333333333333;entryDx=0;entryDy=0;entryPerimeter=0;exitX=1;exitY=0.5;exitDx=0;exitDy=0;" edge="1" parent="1" source="45" target="14">
                    <mxGeometry relative="1" as="geometry">
                        <mxPoint x="370" y="380" as="sourcePoint"/>
                        <mxPoint x="530" y="380" as="targetPoint"/>
                    </mxGeometry>
                </mxCell>
                <mxCell id="48" value="" style="endArrow=none;html=1;rounded=0;entryX=0;entryY=0.5;entryDx=0;entryDy=0;" edge="1" parent="1" target="40">
                    <mxGeometry relative="1" as="geometry">
                        <mxPoint x="130" y="200" as="sourcePoint"/>
                        <mxPoint x="530" y="380" as="targetPoint"/>
                        <Array as="points">
                            <mxPoint x="200" y="470"/>
                        </Array>
                    </mxGeometry>
                </mxCell>
                <mxCell id="49" value="" style="endArrow=none;html=1;rounded=0;exitX=1;exitY=0.25;exitDx=0;exitDy=0;exitPerimeter=0;" edge="1" parent="1" source="39">
                    <mxGeometry relative="1" as="geometry">
                        <mxPoint x="370" y="380" as="sourcePoint"/>
                        <mxPoint x="640" y="280" as="targetPoint"/>
                    </mxGeometry>
                </mxCell>
                <mxCell id="50" value="" style="endArrow=none;html=1;rounded=0;exitX=1;exitY=0.25;exitDx=0;exitDy=0;exitPerimeter=0;" edge="1" parent="1" source="38">
                    <mxGeometry relative="1" as="geometry">
                        <mxPoint x="370" y="380" as="sourcePoint"/>
                        <mxPoint x="640" y="280" as="targetPoint"/>
                    </mxGeometry>
                </mxCell>
                <mxCell id="55" value="" style="endArrow=none;html=1;rounded=0;exitX=1;exitY=0.5;exitDx=0;exitDy=0;" edge="1" parent="1" source="40">
                    <mxGeometry relative="1" as="geometry">
                        <mxPoint x="500" y="420" as="sourcePoint"/>
                        <mxPoint x="640" y="280" as="targetPoint"/>
                        <Array as="points">
                            <mxPoint x="550" y="400"/>
                        </Array>
                    </mxGeometry>
                </mxCell>
            </root>
        </mxGraphModel>
    </diagram>
</mxfile>